<mxfile host="app.diagrams.net" modified="2022-03-16T13:38:33.584Z" agent="5.0 (Windows NT 10.0; Win64; x64) AppleWebKit/537.36 (KHTML, like Gecko) Chrome/99.0.4844.51 Safari/537.36" etag="KX4igkn8YRSWHMTCG0Nx" version="17.1.3" type="github">
  <diagram id="DLNC2aRuRsdQDbo4mnHJ" name="Page-1">
    <mxGraphModel dx="868" dy="482" grid="1" gridSize="10" guides="1" tooltips="1" connect="1" arrows="1" fold="1" page="1" pageScale="1" pageWidth="827" pageHeight="1169" math="0" shadow="0">
      <root>
        <mxCell id="0" />
        <mxCell id="1" parent="0" />
        <mxCell id="NLx6IwleV7TaKMxtJdiM-14" style="edgeStyle=orthogonalEdgeStyle;rounded=0;orthogonalLoop=1;jettySize=auto;html=1;" edge="1" parent="1" source="NLx6IwleV7TaKMxtJdiM-1" target="NLx6IwleV7TaKMxtJdiM-2">
          <mxGeometry relative="1" as="geometry" />
        </mxCell>
        <mxCell id="NLx6IwleV7TaKMxtJdiM-1" value="INICIO" style="rounded=1;whiteSpace=wrap;html=1;" vertex="1" parent="1">
          <mxGeometry x="290" y="160" width="120" height="60" as="geometry" />
        </mxCell>
        <mxCell id="NLx6IwleV7TaKMxtJdiM-15" style="edgeStyle=orthogonalEdgeStyle;rounded=0;orthogonalLoop=1;jettySize=auto;html=1;" edge="1" parent="1" source="NLx6IwleV7TaKMxtJdiM-2" target="NLx6IwleV7TaKMxtJdiM-3">
          <mxGeometry relative="1" as="geometry" />
        </mxCell>
        <mxCell id="NLx6IwleV7TaKMxtJdiM-2" value="NUM1" style="shape=parallelogram;perimeter=parallelogramPerimeter;whiteSpace=wrap;html=1;fixedSize=1;" vertex="1" parent="1">
          <mxGeometry x="290" y="250" width="120" height="60" as="geometry" />
        </mxCell>
        <mxCell id="NLx6IwleV7TaKMxtJdiM-7" style="edgeStyle=orthogonalEdgeStyle;rounded=0;orthogonalLoop=1;jettySize=auto;html=1;" edge="1" parent="1" source="NLx6IwleV7TaKMxtJdiM-3" target="NLx6IwleV7TaKMxtJdiM-6">
          <mxGeometry relative="1" as="geometry" />
        </mxCell>
        <mxCell id="NLx6IwleV7TaKMxtJdiM-3" value="NUM2" style="shape=parallelogram;perimeter=parallelogramPerimeter;whiteSpace=wrap;html=1;fixedSize=1;" vertex="1" parent="1">
          <mxGeometry x="290" y="340" width="120" height="60" as="geometry" />
        </mxCell>
        <mxCell id="NLx6IwleV7TaKMxtJdiM-10" style="edgeStyle=orthogonalEdgeStyle;rounded=0;orthogonalLoop=1;jettySize=auto;html=1;" edge="1" parent="1" source="NLx6IwleV7TaKMxtJdiM-6" target="NLx6IwleV7TaKMxtJdiM-9">
          <mxGeometry relative="1" as="geometry" />
        </mxCell>
        <mxCell id="NLx6IwleV7TaKMxtJdiM-6" value="SOMA = NUM1 + NUM2" style="rounded=0;whiteSpace=wrap;html=1;" vertex="1" parent="1">
          <mxGeometry x="290" y="430" width="120" height="60" as="geometry" />
        </mxCell>
        <mxCell id="NLx6IwleV7TaKMxtJdiM-12" style="edgeStyle=orthogonalEdgeStyle;rounded=0;orthogonalLoop=1;jettySize=auto;html=1;" edge="1" parent="1" source="NLx6IwleV7TaKMxtJdiM-9" target="NLx6IwleV7TaKMxtJdiM-11">
          <mxGeometry relative="1" as="geometry" />
        </mxCell>
        <mxCell id="NLx6IwleV7TaKMxtJdiM-9" value="SOMA" style="shape=document;whiteSpace=wrap;html=1;boundedLbl=1;" vertex="1" parent="1">
          <mxGeometry x="290" y="520" width="120" height="80" as="geometry" />
        </mxCell>
        <mxCell id="NLx6IwleV7TaKMxtJdiM-11" value="FIM" style="rounded=1;whiteSpace=wrap;html=1;" vertex="1" parent="1">
          <mxGeometry x="290" y="620" width="120" height="60" as="geometry" />
        </mxCell>
      </root>
    </mxGraphModel>
  </diagram>
</mxfile>
